<?xml version="1.0" encoding="UTF-8"?>
<svg width="24px" height="24px" viewBox="0 0 24 24" version="1.1" xmlns="http://www.w3.org/2000/svg" xmlns:xlink="http://www.w3.org/1999/xlink">

    <g id="Element/Icon/CardType/Champion" stroke="none" stroke-width="1" fill="none" fill-rule="evenodd">
        <path d="M20.1851064,2 C20.1851064,2 21.1283688,3.40468227 21.4652482,5.61204013 L21.4652482,5.61204013 L20.1851064,7.35117057 L21.6,7.35117057 C21.6,7.81939799 21.5326241,8.28762542 21.4652482,8.75585284 L21.4652482,8.75585284 L19.5113475,11.3645485 L20.7914894,11.3645485 C20.2524823,12.6354515 19.5113475,14.0401338 18.3659574,15.5117057 L18.432,15.423 L18.4277345,15.6880161 C18.2460521,20.6766391 13.7021748,21.9495904 13.5204924,21.998513 L13.5148936,22 L14.1212766,18.0535117 L15.4687943,18.0535117 L15.4687943,14.7090301 L16.8163121,13.3712375 L16.8163121,9.35785953 L13.1106383,12.0334448 L13.1106383,15.5117057 L11.0893617,15.5117057 L11.0893617,12.0334448 L7.38368794,9.35785953 L7.38368794,13.3712375 L8.73120567,14.7090301 L8.73120567,18.0535117 L10.1460993,18.0535117 L10.8198582,22 C10.8198582,22 5.76666667,20.729097 5.76666667,15.3779264 L5.768,15.492 L5.76666667,15.5117057 C4.71672577,14.2240803 3.94985717,12.9364548 3.46606087,11.7003515 L3.34113475,11.3645485 L4.68865248,11.3645485 L2.66737589,8.75585284 C2.6,8.22073579 2.6,7.81939799 2.6,7.35117057 L2.6,7.35117057 L4.0822695,7.35117057 L2.73475177,5.61204013 C3.07163121,3.40468227 4.01489362,2 4.01489362,2 L4.01489362,2 L6.60916592,7.15404495 C7.70207112,5.27128596 9.74939389,4.00668896 12.1,4.00668896 L12.1,4.00668896 L12.3325479,4.0108275 C14.5851816,4.09113888 16.534128,5.33364654 17.5908341,7.15404495 Z" id="Combined-Shape" fill="#A5A0BB" fill-rule="nonzero"></path>
    </g>
</svg>
