<?xml version="1.0" encoding="UTF-8"?>
<svg width="24px" height="24px" viewBox="0 0 24 24" version="1.1" xmlns="http://www.w3.org/2000/svg" xmlns:xlink="http://www.w3.org/1999/xlink">

    <g id="Element/Icon/CardType/Spell" stroke="none" stroke-width="1" fill="none" fill-rule="evenodd">
        <path d="M4.52065393,15.7135794 C4.52065393,15.7135794 3.88318686,11.6423605 9.69122016,6.64261804 C9.97453886,6.9997425 10.3286872,7.35686696 10.6828356,7.57114164 C11.674451,6.9997425 12.3119181,5.92836911 12.3119181,4.78557082 C12.3119181,3.57134764 11.674451,2.57139914 10.6828356,2 C12.8077258,2 16.2783799,5.14269529 16.2783799,10.1424378 L16.2783799,10.7852618 C15.7825722,10.4281374 15.0742754,10.2138627 14.4368083,10.2138627 C12.8785555,10.2138627 11.461962,11.0709614 10.7536653,12.3566095 C11.5327917,13.6422575 12.8785555,14.4993562 14.4368083,14.4993562 C15.9950612,14.4993562 17.553314,13.4279829 18.1907811,11.999485 C18.6157591,12.4994592 19.1823965,13.4279829 19.3948855,14.4993562 C19.3948855,14.4993562 20.386501,18.9276996 16.2783799,20.9990215 C12.1702588,23.0703434 8.203797,21.2847211 8.203797,21.2847211 C8.203797,21.2847211 12.0994291,21.356146 13.1618742,18.2848756 C13.1618742,18.2134507 8.41628602,18.9276996 4.52065393,15.7135794 Z" id="XMLID_28_" fill="#A5A0BB" fill-rule="nonzero"></path>
    </g>
</svg>
